<?xml version="1.0" encoding="iso-8859-1"?>
<!-- Uploaded to: SVG Repo, www.svgrepo.com, Generator: SVG Repo Mixer Tools -->
<svg height="800px" width="800px" version="1.1" id="Layer_1" xmlns="http://www.w3.org/2000/svg" xmlns:xlink="http://www.w3.org/1999/xlink" 
	 viewBox="0 0 503.467 503.467" xml:space="preserve">
<g transform="translate(1 1)">
	<g>
		<path style="fill:#E4F2DE;" d="M250.734,378.733c-5.12,0-8.533-4.267-8.533-8.533c0-4.267,3.413-8.533,8.533-8.533
			c5.12,0,8.533,4.267,8.533,8.533C259.267,374.467,255.854,378.733,250.734,378.733"/>
		<path style="fill:#E4F2DE;" d="M105.667,412.867c0-34.133,42.667-51.2,102.4-51.2l0.853,8.533l16.213,128h-68.267v-8.533
			l-51.2-8.533V412.867z M293.4,361.667c59.733,0,102.4,17.067,102.4,51.2v68.267l-51.2,8.533v8.533h-68.267l16.213-128
			L293.4,361.667z"/>
	</g>
	<path style="fill:#FFD0A1;" d="M319,233.667v17.067c0,4.267-3.413,8.533-8.533,8.533c0,17.067-8.533,34.133-8.533,34.133
		c-8.533,17.067-17.92,34.133-51.2,34.133s-42.667-17.067-51.2-34.133c0,0-8.533-17.067-8.533-34.133
		c-5.12,0-8.533-4.267-8.533-8.533v-17.067c0-4.267,3.413-8.533,8.533-8.533V216.6c0-23.893,18.773-42.667,42.667-42.667H267.8
		c23.893,0,42.667,18.773,42.667,42.667v8.533C315.587,225.133,319,229.4,319,233.667"/>
	<polygon style="fill:#AAB1BA;" points="291.694,370.2 292.547,370.2 276.334,498.2 225.134,498.2 208.92,370.2 209.774,370.2 	"/>
	<path style="fill:#7EE1E6;" d="M250.734,3.267c14.507,0,25.6,11.093,25.6,25.6s-11.093,25.6-25.6,25.6
		c-14.507,0-25.6-11.093-25.6-25.6S236.227,3.267,250.734,3.267z M28.867,156.867c14.507,0,25.6,11.093,25.6,25.6
		c0,14.507-11.093,25.6-25.6,25.6s-25.6-11.093-25.6-25.6C3.267,167.96,14.36,156.867,28.867,156.867z M472.6,156.867
		c14.507,0,25.6,11.093,25.6,25.6c0,14.507-11.093,25.6-25.6,25.6c-14.507,0-25.6-11.093-25.6-25.6
		C447,167.96,458.094,156.867,472.6,156.867z"/>
</g>
<path style="fill:#51565F;" d="M226.134,503.467c-1.707,0-4.267-1.707-4.267-3.413l-16.213-132.267
	c-40.107,0-69.973,8.533-84.48,23.04c-6.827,6.827-10.24,14.507-10.24,23.893v68.267c0,2.56-1.707,4.267-4.267,4.267
	c-2.56,0-4.267-1.707-4.267-4.267V414.72c0-11.093,4.267-21.333,12.8-29.867c17.067-17.067,50.347-25.6,93.867-25.6
	c2.56,0,4.267,1.707,4.267,3.413L230.4,499.2C230.4,500.907,228.694,503.467,226.134,503.467L226.134,503.467z M277.334,503.467
	L277.334,503.467c-2.56,0-4.267-2.56-4.267-5.12l17.067-136.533c0-2.56,2.56-3.413,5.12-3.413c43.52,0,76.8,9.387,93.867,25.6
	c8.533,8.533,12.8,17.92,12.8,29.867v68.267c0,2.56-1.707,4.267-4.267,4.267s-4.267-1.707-4.267-4.267v-68.267
	c0-9.387-3.413-17.067-10.24-23.893c-14.507-14.507-44.373-23.04-84.48-23.04L282.454,499.2
	C281.6,501.76,279.04,503.467,277.334,503.467z M345.6,503.467L345.6,503.467c-2.56,0-4.267-1.707-4.267-4.267l0,0l0.853-34.133
	c0-2.56,1.707-4.267,4.267-4.267s4.267,1.707,4.267,4.267l0,0l-0.853,34.133C349.867,501.76,348.16,503.467,345.6,503.467z
	 M157.867,503.467c-2.56,0-4.267-1.707-4.267-4.267v-34.133c0-2.56,1.707-4.267,4.267-4.267c2.56,0,4.267,1.707,4.267,4.267V499.2
	C162.134,501.76,160.427,503.467,157.867,503.467z M251.734,452.267c-2.56,0-4.267-1.707-4.267-4.267v-64.853
	c-5.12-1.707-8.533-6.827-8.533-11.947c0-6.827,5.973-12.8,12.8-12.8s12.8,5.973,12.8,12.8c0,5.973-3.413,10.24-8.533,11.947V448
	C256,450.56,254.294,452.267,251.734,452.267z M251.734,366.933c-2.56,0-4.267,1.707-4.267,4.267c0,2.56,1.707,4.267,4.267,4.267
	S256,373.76,256,371.2C256,368.64,254.294,366.933,251.734,366.933z M251.734,332.8c-36.693,0-46.933-21.333-54.613-36.693
	c0-0.853-7.68-16.213-8.533-32.427c-5.12-1.707-8.533-6.827-8.533-11.947v-17.067c0-5.973,3.413-10.24,8.533-11.947v-5.12
	c0-25.6,21.333-46.933,46.933-46.933h34.133c25.6,0,46.933,21.333,46.933,46.933v5.12c5.12,1.707,8.533,6.827,8.533,11.947v17.067
	c0,5.973-3.413,10.24-8.533,11.947c-0.853,16.213-8.533,31.573-8.533,32.427C298.667,311.467,288.427,332.8,251.734,332.8z
	 M234.667,179.2c-21.333,0-38.4,17.067-38.4,38.4v8.533c0,2.56-1.707,4.267-4.267,4.267s-4.267,1.707-4.267,4.267v17.067
	c0,2.56,1.707,4.267,4.267,4.267s4.267,1.707,4.267,4.267c0,16.213,7.68,32.427,7.68,32.427
	c9.387,18.773,17.92,31.573,47.787,31.573c29.013,0,38.4-12.8,47.787-31.573c0,0,7.68-16.213,7.68-32.427
	c0-2.56,1.707-4.267,4.267-4.267s4.267-1.707,4.267-4.267v-17.067c0-2.56-1.707-4.267-4.267-4.267s-4.267-1.707-4.267-4.267V217.6
	c0-21.333-17.067-38.4-38.4-38.4H234.667z M277.334,247.467H268.8c-2.56,0-4.267-1.707-4.267-4.267c0-2.56,1.707-4.267,4.267-4.267
	h8.533c2.56,0,4.267,1.707,4.267,4.267C281.6,245.76,279.894,247.467,277.334,247.467z M234.667,247.467h-8.533
	c-2.56,0-4.267-1.707-4.267-4.267c0-2.56,1.707-4.267,4.267-4.267h8.533c2.56,0,4.267,1.707,4.267,4.267
	C238.934,245.76,237.227,247.467,234.667,247.467z M362.667,230.4c-1.707,0-3.413-0.853-4.267-2.56c0-0.853,0-0.853,0-1.707
	c0-1.707,0.853-3.413,2.56-4.267l83.627-32.427c0-1.707-0.853-4.267-0.853-5.973c0-16.213,13.653-29.867,29.867-29.867
	s29.867,13.653,29.867,29.867s-13.653,29.867-29.867,29.867c-11.093,0-21.333-6.827-26.453-16.213l-82.773,32.427
	C363.52,230.4,363.52,230.4,362.667,230.4z M453.12,191.147c2.56,8.533,11.093,13.653,20.48,13.653
	c11.947,0,21.333-9.387,21.333-21.333c0-11.947-9.387-21.333-21.333-21.333s-21.333,9.387-21.333,21.333
	C452.267,186.027,452.267,188.587,453.12,191.147C453.12,190.293,453.12,190.293,453.12,191.147
	C453.12,190.293,453.12,190.293,453.12,191.147z M140.8,230.4c-0.853,0-0.853,0-1.707,0L56.32,197.974
	c-5.12,9.387-15.36,16.213-26.453,16.213C13.653,214.187,0,200.533,0,184.32s13.653-29.867,29.867-29.867
	s29.867,13.653,29.867,29.867c0,1.707,0,4.267-0.853,5.973l83.627,32.427c1.707,0.853,2.56,2.56,2.56,4.267c0,0.853,0,0.853,0,1.707
	C144.214,229.547,142.507,230.4,140.8,230.4z M29.867,162.133c-11.947,0-21.333,9.387-21.333,21.333
	c0,11.947,9.387,21.333,21.333,21.333c9.387,0,17.067-5.973,20.48-13.653l0,0l0,0c0.853-2.56,0.853-4.267,0.853-6.827
	C51.2,171.52,41.814,162.133,29.867,162.133z M251.734,145.067c-2.56,0-4.267-1.707-4.267-4.267V59.733
	c-14.507-1.707-25.6-14.507-25.6-29.867C221.867,13.654,235.52,0,251.734,0S281.6,13.654,281.6,29.867
	c0,15.36-11.093,27.307-25.6,29.867V140.8C256,143.36,254.294,145.067,251.734,145.067z M251.734,8.533
	c-11.947,0-21.333,9.387-21.333,21.333S239.787,51.2,251.734,51.2s21.333-9.387,21.333-21.333S263.68,8.533,251.734,8.533z"/>
</svg>